<svg xmlns="http://www.w3.org/2000/svg" width="64" height="64" viewBox="0 0 64 64" fill="none">
  <!-- Main skull -->
  <path d="M32 60C47.464 60 60 47.464 60 32C60 16.536 47.464 4 32 4C16.536 4 4 16.536 4 32C4 47.464 16.536 60 32 60Z" fill="#1A1A1A"/>
  <path d="M32 56C45.255 56 56 45.255 56 32C56 18.745 45.255 8 32 8C18.745 8 8 18.745 8 32C8 45.255 18.745 56 32 56Z" fill="#111111"/>
  
  <!-- Glowing outer edge effect -->
  <path d="M32 60C47.464 60 60 47.464 60 32C60 16.536 47.464 4 32 4C16.536 4 4 16.536 4 32C4 47.464 16.536 60 32 60Z" stroke="#8B5CF6" stroke-width="1" stroke-opacity="0.6"/>
  
  <!-- Eyes -->
  <path d="M22 28C25.866 28 29 24.866 29 21C29 17.134 25.866 14 22 14C18.134 14 15 17.134 15 21C15 24.866 18.134 28 22 28Z" fill="#8B5CF6" fill-opacity="0.4"/>
  <path d="M42 28C45.866 28 49 24.866 49 21C49 17.134 45.866 14 42 14C38.134 14 35 17.134 35 21C35 24.866 38.134 28 42 28Z" fill="#8B5CF6" fill-opacity="0.4"/>
  
  <!-- Eye sockets -->
  <path d="M22 26C24.761 26 27 23.761 27 21C27 18.239 24.761 16 22 16C19.239 16 17 18.239 17 21C17 23.761 19.239 26 22 26Z" fill="black"/>
  <path d="M42 26C44.761 26 47 23.761 47 21C47 18.239 44.761 16 42 16C39.239 16 37 18.239 37 21C37 23.761 39.239 26 42 26Z" fill="black"/>
  
  <!-- Nose -->
  <path d="M32 28L28 36H36L32 28Z" fill="#333333"/>
  
  <!-- Teeth -->
  <rect x="26" y="38" width="3" height="6" rx="1" fill="white"/>
  <rect x="31" y="38" width="3" height="6" rx="1" fill="white"/>
  <rect x="36" y="38" width="3" height="6" rx="1" fill="white"/>
  
  <!-- Jaw -->
  <path d="M23 36C23 36 23 46 32 46C41 46 41 36 41 36H23Z" fill="#333333" stroke="#444444" stroke-width="0.5"/>
</svg> 